<svg width="130" height="34" xmlns="http://www.w3.org/2000/svg">

 <g>
  <title>background</title>
  <rect fill="none" id="canvas_background" height="36" width="132" y="-1" x="-1"/>
 </g>
 <g>
  <title>Layer 1</title>
  <path fill="#7159c1" stroke="null" id="svg_1" d="m22.682,24.232667l2.827,-1.696l0,1.543l-9.531,6.182l-9.32,-6.226l0,-1.453l2.788,1.652l0.31,0.183l0.286,-0.219l6.021,-4.621l6.019,4.621l0.288,0.219l0.312,-0.185zm-6.599,-17.435l9.166,5.266l-9.249,6.129l-9.192,-5.791l9.275,-5.604zm15.916,0.308l-9.443,-6.034l-6.493,5.444l-6.346,-5.444l-9.717,6.329l6.691,5.09l-6.691,5.091l6.657,3.944l3.06,1.811l6.346,-4.87l6.344,4.87l3.102,-1.861l6.491,-3.894l-6.197,-5.313l6.196,-5.163z"/>
  <text font-weight="bold" stroke="null" transform="matrix(1.0508596897125244,0,0,1,-1.6608867421746254,0) " xml:space="preserve" text-anchor="start" font-family="Oswald, sans-serif" font-size="24" id="svg_2" y="24.8125" x="33.618268" stroke-opacity="null" stroke-width="0" fill="#7159c1">BrBox</text>
 </g>
</svg>